<svg width="82" height="84" xmlns="http://www.w3.org/2000/svg" xmlns:xlink="http://www.w3.org/1999/xlink"><defs><linearGradient x1="1.097%" y1="0%" x2="95.916%" y2="96.071%" id="b"><stop stop-color="#F7F8FA" offset="0%"/><stop stop-color="#FFF" offset="100%"/></linearGradient><linearGradient x1="11.36%" y1="0%" x2="86.279%" y2="96.071%" id="e"><stop stop-color="#F7F8FA" offset="0%"/><stop stop-color="#FFF" offset="100%"/></linearGradient><rect id="a" x="13" y="10" width="64" height="64" rx="3"/><rect id="d" x="5" y="6" width="64" height="72" rx="3"/><filter x="-12.5%" y="-12.5%" width="123.4%" height="125%" filterUnits="objectBoundingBox" id="c"><feOffset dy="2" in="SourceAlpha" result="shadowOffsetOuter1"/><feGaussianBlur stdDeviation="2" in="shadowOffsetOuter1" result="shadowBlurOuter1"/><feColorMatrix values="0 0 0 0 0.819607843 0 0 0 0 0.850980392 0 0 0 0 0.901960784 0 0 0 0.3 0" in="shadowBlurOuter1" result="shadowMatrixOuter1"/><feOffset dx="-1" dy="-2" in="SourceAlpha" result="shadowOffsetOuter2"/><feGaussianBlur stdDeviation="2" in="shadowOffsetOuter2" result="shadowBlurOuter2"/><feColorMatrix values="0 0 0 0 1 0 0 0 0 1 0 0 0 0 1 0 0 0 0.5 0" in="shadowBlurOuter2" result="shadowMatrixOuter2"/><feOffset dx="-1" dy="-1" in="SourceAlpha" result="shadowOffsetOuter3"/><feColorMatrix values="0 0 0 0 1 0 0 0 0 1 0 0 0 0 1 0 0 0 1 0" in="shadowOffsetOuter3" result="shadowMatrixOuter3"/><feOffset dx="1" dy="1" in="SourceAlpha" result="shadowOffsetOuter4"/><feColorMatrix values="0 0 0 0 0 0 0 0 0 0 0 0 0 0 0 0 0 0 0.01 0" in="shadowOffsetOuter4" result="shadowMatrixOuter4"/><feMerge><feMergeNode in="shadowMatrixOuter1"/><feMergeNode in="shadowMatrixOuter2"/><feMergeNode in="shadowMatrixOuter3"/><feMergeNode in="shadowMatrixOuter4"/></feMerge></filter></defs><g fill="none" fill-rule="evenodd"><g opacity=".7"><use fill="#FFF" xlink:href="#a"/><use fill="url(#b)" xlink:href="#a"/></g><use fill="#000" filter="url(#c)" xlink:href="#d"/><use fill="#F4F5F7" xlink:href="#d"/><use fill-opacity=".6" fill="#FFF" xlink:href="#d"/><use fill-opacity=".75" fill="url(#e)" xlink:href="#d"/><g fill-rule="nonzero"><path d="M21 68a6 6 0 100-12 6 6 0 000 12zm0-2a4 4 0 110-8 4 4 0 010 8z" fill="#BED8FF"/><path d="M21 56a6 6 0 015.917 7h-2.043A4 4 0 0021 58z" fill="#2C81FF"/></g><rect fill="#CFD8E5" fill-rule="nonzero" x="33" y="18" width="24" height="3" rx="1"/><rect fill="#CFD8E5" fill-rule="nonzero" opacity=".5" x="33" y="24" width="18" height="2" rx="1"/><rect fill="#CFD8E5" fill-rule="nonzero" x="33" y="38" width="24" height="3" rx="1"/><rect fill="#CFD8E5" fill-rule="nonzero" opacity=".5" x="33" y="44" width="14" height="2" rx="1"/><g transform="translate(15 16)"><circle fill="#69CE30" cx="6" cy="6" r="6"/><path d="M4.879 8.877l-2.283-2.27a.333.333 0 01-.096-.246c0-.1.032-.182.096-.246l.506-.492a.305.305 0 01.239-.11c.096 0 .18.037.253.11l1.531 1.531 3.281-3.28a.347.347 0 01.253-.11c.096 0 .176.036.24.11l.505.491a.333.333 0 01.096.246c0 .1-.032.183-.096.246l-4.033 4.02a.312.312 0 01-.246.11.312.312 0 01-.246-.11z" fill="#FFF" fill-rule="nonzero"/></g><rect fill="#CFD8E5" fill-rule="nonzero" x="33" y="58" width="24" height="3" rx="1"/><rect fill="#CFD8E5" fill-rule="nonzero" opacity=".5" x="33" y="64" width="16" height="2" rx="1"/><g fill-rule="nonzero"><path d="M27 42a6 6 0 10-12 0 6 6 0 0012 0zm-2 0a4 4 0 11-8 0 4 4 0 018 0z" fill="#BED8FF"/><path d="M15 42a6 6 0 017-5.917v2.043A4 4 0 0017 42z" fill="#2C81FF"/></g></g></svg>